# xmcd
# 
# Track frame offsets:
#     182
#     28520
#     41907
#     65620
#     97132
#     115107
#     147707
#     176107
#     198970
#     219495
#     241495
#     258932
#     270107
# 
# Disc length: 3778
# 
# Revision: 5
# Processed by: cddbd v1.5.2PL0 Copyright (c) Steve Scherf et al.
# Submitted via: fre:ac v1.0.31
# 
DISCID=c30ec00d
DTITLE=helen merrill - Homage To Clifford Brown
DYEAR=1994
DGENRE=Jazz
TTITLE0=Your Eyes
TTITLE1=Daahoud
TTITLE2=Born To Be Blue
TTITLE3=I Remember Clifford
TTITLE4=Joy Spring
TTITLE5=I'll Remember April
TTITLE6=Dont't Explain
TTITLE7=Brownie
TTITLE8=You'd Be So Nice To Come Home To
TTITLE9=I'll Be Seeing You
TTITLE10=Memories of You
TTITLE11=Gone With The Wind
TTITLE12=Largo
EXTD=YEAR: 1994
EXTT0=
EXTT1=
EXTT2=
EXTT3=
EXTT4=
EXTT5=
EXTT6=
EXTT7=
EXTT8=
EXTT9=
EXTT10=
EXTT11=
EXTT12=
PLAYORDER=
